<svg xmlns="http://www.w3.org/2000/svg" viewBox="0 0 800 450" fill="none">
  <defs>
    <linearGradient id="s1sky" x1="0" y1="0" x2="0" y2="1">
      <stop offset="0" stop-color="#d7ecf2"/>
      <stop offset="1" stop-color="#f7eedd"/>
    </linearGradient>
  </defs>
  <rect width="800" height="450" fill="url(#s1sky)"/>
  <circle cx="600" cy="130" r="70" fill="#d98e5a" opacity="0.55"/>
  <circle cx="600" cy="130" r="50" fill="#d98e5a" opacity="0.5"/>
  <ellipse cx="180" cy="110" rx="70" ry="24" fill="#fff" opacity="0.75"/>
  <ellipse cx="250" cy="120" rx="55" ry="20" fill="#fff" opacity="0.7"/>
  <ellipse cx="470" cy="80" rx="60" ry="20" fill="#fff" opacity="0.6"/>
  <path d="M0 300 C200 250 360 330 560 290 C680 266 740 300 800 286 L800 450 L0 450 Z" fill="#bfd3a8"/>
  <path d="M0 340 C160 300 380 380 600 340 C700 322 760 348 800 338 L800 450 L0 450 Z" fill="#8fae7b"/>
  <path d="M0 386 C220 356 460 404 700 380 C740 376 780 384 800 382 L800 450 L0 450 Z" fill="#5e7c5a"/>
</svg>
