<svg xmlns="http://www.w3.org/2000/svg" viewBox="0 0 800 450" fill="none">
  <defs>
    <linearGradient id="s6sky" x1="0" y1="0" x2="0" y2="1">
      <stop offset="0" stop-color="#d7ecf2"/>
      <stop offset="1" stop-color="#f7eedd"/>
    </linearGradient>
  </defs>
  <rect width="800" height="450" fill="url(#s6sky)"/>
  <circle cx="640" cy="110" r="52" fill="#f3c79a" opacity="0.65"/>
  <ellipse cx="200" cy="100" rx="64" ry="20" fill="#fff" opacity="0.65"/>
  <path d="M0 300 C220 268 460 320 800 296 L800 450 L0 450 Z" fill="#bfd3a8"/>
  <path d="M0 350 C240 322 520 366 800 348 L800 450 L0 450 Z" fill="#a9c58d"/>
  <g>
    <g transform="translate(120 360)">
      <path d="M0 0 L0 -46" stroke="#5e7c5a" stroke-width="3"/>
      <circle cx="0" cy="-52" r="11" fill="#d98e5a"/>
      <circle cx="0" cy="-52" r="5" fill="#8a6a44"/>
    </g>
    <g transform="translate(300 380)">
      <path d="M0 0 L0 -40" stroke="#5e7c5a" stroke-width="3"/>
      <circle cx="0" cy="-46" r="10" fill="#d98e5a"/>
      <circle cx="0" cy="-46" r="4.5" fill="#8a6a44"/>
    </g>
    <g transform="translate(500 366)">
      <path d="M0 0 L0 -44" stroke="#5e7c5a" stroke-width="3"/>
      <circle cx="0" cy="-50" r="11" fill="#d98e5a"/>
      <circle cx="0" cy="-50" r="5" fill="#8a6a44"/>
    </g>
    <g transform="translate(670 384)">
      <path d="M0 0 L0 -38" stroke="#5e7c5a" stroke-width="3"/>
      <circle cx="0" cy="-44" r="9.5" fill="#d98e5a"/>
      <circle cx="0" cy="-44" r="4.5" fill="#8a6a44"/>
    </g>
  </g>
  <path d="M0 404 C240 386 520 418 800 402 L800 450 L0 450 Z" fill="#8fae7b"/>
</svg>
